<?xml version="1.0" encoding="utf-8"?>
<svg version="1.1" id="Layer_1" xmlns="http://www.w3.org/2000/svg" xmlns:xlink="http://www.w3.org/1999/xlink" x="0px" y="0px"
	 viewBox="0 0 1074.01 696.84" style="enable-background:new 0 0 1074.01 696.84;" xml:space="preserve">
<style type="text/css">
	.st0{fill:#FFFFFF;}
	.st1{fill:#617DBE;}
	.st2{fill:url(#SVGID_1_);}
	.st3{fill:url(#SVGID_2_);}
	.st4{fill:url(#SVGID_3_);}
	.st5{fill:url(#SVGID_4_);}
	.st6{fill:url(#SVGID_5_);}
	.st7{fill:url(#SVGID_6_);}
	.st8{fill:#FFFFFF;}
</style>
<g>
	<g>
		<linearGradient id="SVGID_1_" gradientUnits="userSpaceOnUse" x1="275.3299" y1="-14.2602" x2="267.6703" y2="400.8887">
			<stop  offset="0" style="stop-color:#AFDDFF"/>
			<stop  offset="0.0271" style="stop-color:#ACDAFF"/>
			<stop  offset="0.6865" style="stop-color:#709DFF"/>
			<stop  offset="1" style="stop-color:#5885FF"/>
		</linearGradient>
		<path class="st2" d="M494.81,137.83l-10.63,13.48c-5.93,7.45-11.41,14.3-16.83,21.17C404.9,251.85,342.48,331.2,280.03,410.55
			c-7.59,9.66-15.95,9.58-23.64-0.2c-26.82-34.11-53.68-68.24-80.55-102.35c-1.55-1.99-3.23-3.9-5.42-6.55
			c-31.48,39.98-62.86,79.85-94.34,119.83H42.42c38.53-48.88,77.1-97.73,115.35-146.85c7.15-9.18,16.95-11.15,25.81,0.38
			c26.58,34.59,53.8,68.68,80.76,102.93c1.1,1.39,2.29,2.69,3.8,4.46c1.25-1.35,2.49-2.51,3.52-3.82
			c65.73-83.51,131.44-167.04,197.15-250.56c1.59-2.01,3.15-4.02,4.8-5.97c6.29-7.53,14.81-7.61,21.05,0.04
			c0.02,0.04,0.04,0.06,0.06,0.08C498.47,126.58,498.47,133.17,494.81,137.83"/>
		<linearGradient id="SVGID_2_" gradientUnits="userSpaceOnUse" x1="747.4641" y1="-5.5493" x2="739.8045" y2="409.5997">
			<stop  offset="0" style="stop-color:#AFDDFF"/>
			<stop  offset="0.0271" style="stop-color:#ACDAFF"/>
			<stop  offset="0.6865" style="stop-color:#709DFF"/>
			<stop  offset="1" style="stop-color:#5885FF"/>
		</linearGradient>
		<path class="st3" d="M984.87,421.28h-33.65c-51.24-65.09-102.25-129.91-153.48-194.96c-8.05,10.18-15.71,19.81-23.32,29.49
			c-34.67,44.05-69.31,88.11-103.98,132.16L501.86,173.81c-1.89-2.41-2.83-5.3-2.83-8.2c0-2.91,0.93-5.79,2.85-8.2
			c5.32-6.71,15.49-6.71,20.79,0.02c27.62,35.09,103.4,131.4,144.05,183.05c1.1,1.37,2.25,2.67,3.8,4.54
			c6.01-7.61,11.85-14.95,17.64-22.32c32.7-41.52,65.29-83.09,98.17-124.47c2.37-2.99,6.25-5.52,9.92-6.53
			c5.48-1.51,9.54,1.95,12.92,6.27c15.85,20.27,31.78,40.46,47.71,60.69C899.54,312.86,942.22,367.06,984.87,421.28"/>
		<linearGradient id="SVGID_3_" gradientUnits="userSpaceOnUse" x1="486.8423" y1="-10.3578" x2="479.1827" y2="404.7911">
			<stop  offset="0" style="stop-color:#FFDA50"/>
			<stop  offset="0.3885" style="stop-color:#FF9B8A"/>
			<stop  offset="0.8026" style="stop-color:#FF5EC4"/>
			<stop  offset="1" style="stop-color:#FF46DA"/>
		</linearGradient>
		<path class="st4" d="M560.5,296.61c-22.42,13.8-48.81,21.76-77,21.76c-27.86,0-53.94-7.77-76.18-21.27
			c-4.9,6.21-9.8,12.45-14.68,18.64c26.34,16.61,57.49,26.2,90.86,26.2c33.71,0,65.17-9.8,91.68-26.72L560.5,296.61z M483.5,0
			c-94.28,0-170.99,76.7-170.99,170.99c0,29.35,7.43,56.97,20.51,81.12c5.4-6.85,10.77-13.68,16.15-20.51
			c-8.38-18.5-13.06-39.03-13.06-60.61c0-81.28,66.11-147.39,147.39-147.39c81.26,0,147.39,66.11,147.39,147.39
			c0,21.21-4.5,41.4-12.62,59.66c5.4,6.83,10.81,13.72,16.17,20.55c12.8-23.91,20.05-51.23,20.05-80.21
			C654.48,76.7,577.76,0,483.5,0"/>
	</g>
	<g>
		<g>
			<path class="st0" d="M120.13,617.04H91.96l-63.79-96.38v96.38H0V476.38h28.17l63.79,96.59v-96.59h28.17V617.04z"/>
			<path class="st0" d="M217.11,609.19c-11-6.17-19.72-14.72-26.16-25.66c-6.44-10.93-9.66-23.31-9.66-37.13
				c0-13.68,3.22-25.99,9.66-36.92c6.44-10.93,15.16-19.48,26.16-25.66c11-6.17,23.07-9.26,36.22-9.26
				c13.28,0,25.39,3.09,36.32,9.26c10.93,6.17,19.58,14.72,25.96,25.66c6.37,10.93,9.56,23.24,9.56,36.92
				c0,13.82-3.19,26.19-9.56,37.13c-6.37,10.93-15.06,19.49-26.06,25.66c-11,6.17-23.07,9.26-36.22,9.26
				C240.18,618.45,228.11,615.36,217.11,609.19z M275.67,587.56c6.44-3.82,11.47-9.29,15.09-16.4c3.62-7.11,5.43-15.36,5.43-24.75
				c0-9.39-1.81-17.61-5.43-24.65c-3.62-7.04-8.65-12.44-15.09-16.2c-6.44-3.75-13.88-5.63-22.34-5.63
				c-8.45,0-15.93,1.88-22.44,5.63c-6.51,3.76-11.57,9.16-15.19,16.2c-3.62,7.04-5.43,15.26-5.43,24.65
				c0,9.39,1.81,17.64,5.43,24.75c3.62,7.11,8.68,12.58,15.19,16.4c6.51,3.82,13.99,5.73,22.44,5.73
				C261.79,593.29,269.23,591.38,275.67,587.56z"/>
			<path class="st0" d="M512.5,476.58l-51.51,140.45h-34.21l-51.51-140.45h30.18l38.63,111.68l38.43-111.68H512.5z"/>
			<path class="st0" d="M655.77,590.27h-55.94l-9.26,26.76H561l50.51-140.65h32.8l50.51,140.65h-29.78L655.77,590.27z
				 M648.13,567.74l-20.32-58.76l-20.32,58.76H648.13z"/>
			<path class="st0" d="M874.1,617.04h-28.17l-63.79-96.38v96.38h-28.17V476.38h28.17l63.79,96.59v-96.59h28.17V617.04z"/>
			<path class="st0" d="M1028.23,590.27h-55.94l-9.26,26.76h-29.58l50.51-140.65h32.8l50.51,140.65h-29.78L1028.23,590.27z
				 M1020.58,567.74l-20.32-58.76l-20.32,58.76H1020.58z"/>
		</g>
		<path class="st0" d="M3.22,667.72c1.37-2.34,3.24-4.17,5.6-5.49c2.36-1.32,4.94-1.97,7.75-1.97c3.21,0,6.07,0.79,8.57,2.36
			c2.5,1.58,4.32,3.81,5.45,6.7h-5.95c-0.78-1.59-1.87-2.78-3.25-3.56c-1.39-0.78-2.99-1.17-4.82-1.17c-2,0-3.78,0.45-5.34,1.35
			c-1.56,0.9-2.79,2.18-3.67,3.86c-0.88,1.68-1.32,3.63-1.32,5.86c0,2.23,0.44,4.18,1.32,5.86c0.88,1.68,2.1,2.97,3.67,3.88
			c1.56,0.91,3.34,1.37,5.34,1.37c1.82,0,3.43-0.39,4.82-1.17c1.39-0.78,2.47-1.97,3.25-3.56h5.95c-1.13,2.89-2.94,5.12-5.45,6.68
			c-2.5,1.56-5.36,2.34-8.57,2.34c-2.83,0-5.42-0.66-7.77-1.97c-2.34-1.32-4.2-3.15-5.58-5.49c-1.37-2.34-2.06-4.99-2.06-7.94
			C1.16,672.71,1.85,670.06,3.22,667.72z"/>
		<path class="st0" d="M60.69,690.8l-6.94-12.06h-3.78v12.06h-4.95v-30.16h10.41c2.31,0,4.27,0.41,5.88,1.21
			c1.61,0.81,2.81,1.89,3.6,3.25c0.8,1.36,1.19,2.88,1.19,4.56c0,1.97-0.57,3.75-1.71,5.36c-1.14,1.61-2.9,2.7-5.27,3.28l7.46,12.5
			H60.69z M49.98,674.79h5.47c1.85,0,3.25-0.46,4.19-1.39c0.94-0.93,1.41-2.17,1.41-3.73s-0.46-2.78-1.39-3.67
			c-0.93-0.88-2.33-1.32-4.21-1.32h-5.47V674.79z"/>
		<path class="st0" d="M86.08,664.64v8.85h10.41v4.04H86.08v9.24h11.72v4.04H81.13v-30.2h16.66v4.04H86.08z"/>
		<path class="st0" d="M130.73,684.64H118.1l-2.17,6.16h-5.16l10.8-30.2h5.73l10.81,30.2h-5.21L130.73,684.64z M129.34,680.61
			l-4.9-14.02l-4.95,14.02H129.34z"/>
		<path class="st0" d="M170.95,660.65v4.04h-8.03v26.12h-4.95v-26.12h-8.07v-4.04H170.95z"/>
		<path class="st0" d="M189.57,664.64v8.85h10.41v4.04h-10.41v9.24h11.72v4.04h-16.66v-30.2h16.66v4.04H189.57z"/>
		<path class="st0" d="M256.26,677.87c1.13,1.42,1.69,3.02,1.69,4.82c0,1.53-0.4,2.91-1.19,4.14c-0.8,1.23-1.95,2.2-3.45,2.91
			c-1.5,0.71-3.25,1.06-5.25,1.06h-12.06v-30.16h11.5c2.05,0,3.82,0.35,5.29,1.04c1.48,0.69,2.59,1.63,3.34,2.8
			c0.75,1.17,1.13,2.48,1.13,3.93c0,1.74-0.46,3.18-1.39,4.34c-0.93,1.16-2.17,2.01-3.73,2.56
			C253.76,675.6,255.13,676.46,256.26,677.87z M240.94,673.32h6.12c1.62,0,2.89-0.37,3.8-1.11c0.91-0.74,1.37-1.8,1.37-3.19
			c0-1.36-0.46-2.42-1.37-3.19c-0.91-0.77-2.18-1.15-3.8-1.15h-6.12V673.32z M251.57,685.55c0.95-0.81,1.43-1.94,1.43-3.38
			c0-1.48-0.51-2.65-1.52-3.51c-1.01-0.87-2.36-1.3-4.04-1.3h-6.51v9.42h6.68C249.3,686.77,250.62,686.36,251.57,685.55z"/>
		<path class="st0" d="M276.96,664.64v8.85h10.41v4.04h-10.41v9.24h11.72v4.04h-16.66v-30.2h16.66v4.04H276.96z"/>
		<path class="st0" d="M322.91,660.65v4.04h-8.03v26.12h-4.95v-26.12h-8.07v-4.04H322.91z"/>
		<path class="st0" d="M356.06,660.65v4.04h-8.03v26.12h-4.95v-26.12h-8.07v-4.04H356.06z"/>
		<path class="st0" d="M374.67,664.64v8.85h10.41v4.04h-10.41v9.24h11.72v4.04h-16.66v-30.2h16.66v4.04H374.67z"/>
		<path class="st0" d="M416.81,690.8l-6.94-12.06h-3.78v12.06h-4.95v-30.16h10.41c2.31,0,4.27,0.41,5.88,1.21
			c1.61,0.81,2.81,1.89,3.6,3.25c0.8,1.36,1.19,2.88,1.19,4.56c0,1.97-0.57,3.75-1.71,5.36c-1.14,1.61-2.9,2.7-5.27,3.28l7.46,12.5
			H416.81z M406.09,674.79h5.47c1.85,0,3.25-0.46,4.19-1.39c0.94-0.93,1.41-2.17,1.41-3.73s-0.46-2.78-1.39-3.67
			c-0.93-0.88-2.33-1.32-4.21-1.32h-5.47V674.79z"/>
		<path class="st0" d="M461.67,690.05c-1.62-0.71-2.89-1.71-3.82-3.02c-0.93-1.3-1.39-2.82-1.39-4.56h5.29
			c0.11,1.3,0.63,2.37,1.54,3.21c0.91,0.84,2.19,1.26,3.84,1.26c1.71,0,3.04-0.41,3.99-1.24c0.95-0.82,1.43-1.89,1.43-3.19
			c0-1.01-0.3-1.84-0.89-2.47c-0.59-0.64-1.33-1.13-2.21-1.48c-0.88-0.35-2.1-0.72-3.67-1.13c-1.97-0.52-3.57-1.05-4.79-1.58
			c-1.23-0.54-2.28-1.37-3.15-2.49c-0.87-1.13-1.3-2.63-1.3-4.51c0-1.74,0.43-3.25,1.3-4.56c0.87-1.3,2.08-2.3,3.65-2.99
			c1.56-0.69,3.37-1.04,5.42-1.04c2.92,0,5.32,0.73,7.18,2.19c1.87,1.46,2.9,3.46,3.1,6.01h-5.47c-0.09-1.1-0.61-2.04-1.56-2.82
			c-0.96-0.78-2.21-1.17-3.78-1.17c-1.42,0-2.58,0.36-3.47,1.09c-0.9,0.72-1.34,1.76-1.34,3.12c0,0.93,0.28,1.69,0.85,2.28
			c0.56,0.59,1.28,1.06,2.15,1.41c0.87,0.35,2.05,0.72,3.56,1.13c2,0.55,3.62,1.1,4.88,1.65c1.26,0.55,2.33,1.4,3.21,2.54
			c0.88,1.14,1.32,2.67,1.32,4.58c0,1.53-0.41,2.98-1.24,4.34c-0.82,1.36-2.02,2.45-3.6,3.28c-1.58,0.82-3.43,1.24-5.57,1.24
			C465.11,691.11,463.29,690.75,461.67,690.05z"/>
		<path class="st0" d="M498.1,689.13c-2.36-1.32-4.22-3.15-5.6-5.51c-1.37-2.36-2.06-5.01-2.06-7.96c0-2.95,0.69-5.6,2.06-7.94
			c1.37-2.34,3.24-4.17,5.6-5.49c2.36-1.32,4.94-1.97,7.75-1.97c2.84,0,5.43,0.66,7.79,1.97c2.36,1.32,4.22,3.15,5.58,5.49
			c1.36,2.34,2.04,4.99,2.04,7.94c0,2.95-0.68,5.61-2.04,7.96c-1.36,2.36-3.22,4.19-5.58,5.51c-2.36,1.32-4.95,1.97-7.79,1.97
			C503.04,691.11,500.46,690.45,498.1,689.13z M511.18,685.45c1.56-0.91,2.78-2.21,3.67-3.91c0.88-1.69,1.32-3.65,1.32-5.88
			c0-2.23-0.44-4.18-1.32-5.86c-0.88-1.68-2.1-2.96-3.67-3.86c-1.56-0.9-3.34-1.35-5.34-1.35s-3.78,0.45-5.34,1.35
			c-1.56,0.9-2.79,2.18-3.67,3.86c-0.88,1.68-1.32,3.63-1.32,5.86c0,2.23,0.44,4.19,1.32,5.88c0.88,1.69,2.1,2.99,3.67,3.91
			c1.56,0.91,3.34,1.37,5.34,1.37S509.62,686.36,511.18,685.45z"/>
		<path class="st0" d="M552.53,660.65v4.04h-12.8v8.9h9.98v4.04h-9.98v13.19h-4.95v-30.16H552.53z"/>
		<path class="st0" d="M585.29,660.65v4.04h-8.03v26.12h-4.95v-26.12h-8.07v-4.04H585.29z"/>
		<path class="st0" d="M638.23,660.65l-8.94,30.16h-5.6l-6.34-22.82l-6.73,22.82l-5.55,0.04l-8.55-30.2h5.25l6.25,24.56l6.77-24.56
			h5.55l6.29,24.43l6.29-24.43H638.23z"/>
		<path class="st0" d="M669.17,684.64h-12.63l-2.17,6.16h-5.16l10.8-30.2h5.73l10.81,30.2h-5.21L669.17,684.64z M667.78,680.61
			l-4.9-14.02l-4.95,14.02H667.78z"/>
		<path class="st0" d="M705.57,690.8l-6.94-12.06h-3.78v12.06h-4.95v-30.16h10.41c2.31,0,4.27,0.41,5.88,1.21
			c1.61,0.81,2.81,1.89,3.6,3.25c0.79,1.36,1.19,2.88,1.19,4.56c0,1.97-0.57,3.75-1.71,5.36c-1.14,1.61-2.9,2.7-5.27,3.28l7.46,12.5
			H705.57z M694.86,674.79h5.47c1.85,0,3.25-0.46,4.19-1.39c0.94-0.93,1.41-2.17,1.41-3.73s-0.46-2.78-1.39-3.67
			c-0.93-0.88-2.33-1.32-4.21-1.32h-5.47V674.79z"/>
		<path class="st0" d="M730.96,664.64v8.85h10.41v4.04h-10.41v9.24h11.72v4.04h-16.66v-30.2h16.66v4.04H730.96z"/>
		<path class="st0" d="M762.85,684.86l-5.25,11.98h-3.21l3.08-11.98H762.85z"/>
		<path class="st0" d="M818.61,660.65v4.04h-8.03v26.12h-4.95v-26.12h-8.07v-4.04H818.61z"/>
		<path class="st0" d="M838.29,689.13c-2.36-1.32-4.22-3.15-5.6-5.51c-1.37-2.36-2.06-5.01-2.06-7.96c0-2.95,0.69-5.6,2.06-7.94
			c1.37-2.34,3.24-4.17,5.6-5.49c2.36-1.32,4.94-1.97,7.75-1.97c2.84,0,5.43,0.66,7.79,1.97c2.36,1.32,4.22,3.15,5.58,5.49
			c1.36,2.34,2.04,4.99,2.04,7.94c0,2.95-0.68,5.61-2.04,7.96c-1.36,2.36-3.22,4.19-5.58,5.51c-2.36,1.32-4.95,1.97-7.79,1.97
			C843.22,691.11,840.64,690.45,838.29,689.13z M851.37,685.45c1.56-0.91,2.78-2.21,3.67-3.91c0.88-1.69,1.32-3.65,1.32-5.88
			c0-2.23-0.44-4.18-1.32-5.86c-0.88-1.68-2.1-2.96-3.67-3.86c-1.56-0.9-3.34-1.35-5.34-1.35s-3.78,0.45-5.34,1.35
			c-1.56,0.9-2.79,2.18-3.67,3.86c-0.88,1.68-1.32,3.63-1.32,5.86c0,2.23,0.44,4.19,1.32,5.88c0.88,1.69,2.1,2.99,3.67,3.91
			c1.56,0.91,3.34,1.37,5.34,1.37S849.81,686.36,851.37,685.45z"/>
		<path class="st0" d="M896.8,669.33c-0.78-1.5-1.87-2.64-3.25-3.41c-1.39-0.77-2.99-1.15-4.82-1.15c-2,0-3.78,0.45-5.34,1.35
			c-1.56,0.9-2.79,2.17-3.67,3.82s-1.32,3.56-1.32,5.73c0,2.17,0.44,4.09,1.32,5.75c0.88,1.66,2.1,2.94,3.67,3.84
			c1.56,0.9,3.34,1.34,5.34,1.34c2.69,0,4.87-0.75,6.55-2.26c1.68-1.5,2.7-3.54,3.08-6.12h-11.33v-3.95h16.62v3.86
			c-0.32,2.34-1.15,4.5-2.49,6.47c-1.35,1.97-3.1,3.54-5.25,4.71c-2.16,1.17-4.55,1.76-7.18,1.76c-2.83,0-5.42-0.66-7.77-1.97
			c-2.34-1.32-4.2-3.15-5.58-5.49c-1.37-2.34-2.06-4.99-2.06-7.94c0-2.95,0.69-5.6,2.06-7.94c1.37-2.34,3.24-4.17,5.6-5.49
			c2.36-1.32,4.94-1.97,7.75-1.97c3.21,0,6.07,0.79,8.57,2.36c2.5,1.58,4.32,3.81,5.45,6.7H896.8z"/>
		<path class="st0" d="M922.14,664.64v8.85h10.41v4.04h-10.41v9.24h11.72v4.04h-16.66v-30.2h16.66v4.04H922.14z"/>
		<path class="st0" d="M968.09,660.65v4.04h-8.03v26.12h-4.95v-26.12h-8.07v-4.04H968.09z"/>
		<path class="st0" d="M1005.84,660.65v30.16h-4.95v-13.19H986.7v13.19h-4.95v-30.16h4.95v12.93h14.19v-12.93H1005.84z"/>
		<path class="st0" d="M1025.97,664.64v8.85h10.41v4.04h-10.41v9.24h11.72v4.04h-16.66v-30.2h16.66v4.04H1025.97z"/>
		<path class="st0" d="M1068.11,690.8l-6.94-12.06h-3.78v12.06h-4.95v-30.16h10.41c2.31,0,4.27,0.41,5.88,1.21
			c1.61,0.81,2.81,1.89,3.6,3.25c0.8,1.36,1.19,2.88,1.19,4.56c0,1.97-0.57,3.75-1.71,5.36c-1.14,1.61-2.9,2.7-5.27,3.28l7.46,12.5
			H1068.11z M1057.39,674.79h5.47c1.85,0,3.25-0.46,4.19-1.39c0.94-0.93,1.41-2.17,1.41-3.73s-0.46-2.78-1.39-3.67
			c-0.93-0.88-2.33-1.32-4.21-1.32h-5.47V674.79z"/>
	</g>
</g>
</svg>
