<?xml version="1.0" standalone="no"?>
<!DOCTYPE svg PUBLIC "-//W3C//DTD SVG 20010904//EN"
 "http://www.w3.org/TR/2001/REC-SVG-20010904/DTD/svg10.dtd">
<svg version="1.0" xmlns="http://www.w3.org/2000/svg"
 width="700.000000pt" height="700.000000pt" viewBox="0 0 700.000000 700.000000"
 preserveAspectRatio="xMidYMid meet">
<metadata>
Created by potrace 1.14, written by Peter Selinger 2001-2017
</metadata>
<g transform="translate(0.000000,700.000000) scale(0.100000,-0.100000)"
fill="#000000" stroke="none">
<path d="M3265 6006 c-407 -67 -731 -307 -916 -677 -80 -161 -118 -330 -118
-528 0 -76 5 -156 10 -179 5 -23 12 -59 15 -80 12 -77 101 -312 119 -312 2 0
29 32 59 71 42 53 54 75 47 87 -5 10 -18 44 -29 77 -163 481 44 1011 489 1256
308 169 701 171 1005 4 262 -145 450 -390 520 -681 27 -114 36 -269 21 -384
-8 -62 -49 -217 -66 -248 -6 -11 -11 -25 -11 -30 0 -13 101 -142 111 -142 4 0
15 17 24 38 9 20 21 46 27 57 18 33 68 215 79 289 18 113 15 285 -6 401 -36
190 -133 399 -257 545 -198 237 -428 371 -743 435 -65 13 -302 14 -380 1z"/>
<path d="M3386 5158 c-19 -18 -120 -143 -226 -278 -105 -135 -197 -253 -205
-262 -7 -9 -105 -133 -216 -275 -112 -142 -214 -272 -228 -289 -14 -18 -37
-47 -51 -65 -14 -18 -68 -87 -121 -153 -52 -67 -168 -214 -258 -328 -92 -117
-168 -205 -174 -202 -7 3 -34 35 -62 71 -27 35 -57 73 -65 83 -8 10 -27 33
-41 51 -15 19 -62 79 -106 134 -43 55 -126 161 -183 235 -57 74 -107 137 -110
140 -3 3 -18 22 -33 42 -38 51 -94 68 -135 42 -17 -10 -45 -37 -62 -59 -17
-22 -42 -53 -56 -70 -13 -16 -117 -149 -231 -295 -269 -343 -244 -311 -388
-494 -69 -87 -125 -161 -125 -165 0 -5 131 -6 220 -2 8 1 42 36 76 79 107 136
295 376 325 413 16 19 58 73 94 120 36 46 71 91 78 99 7 8 32 41 57 73 25 31
50 57 55 57 9 0 426 -521 580 -724 63 -83 113 -109 158 -82 10 6 67 72 125
146 59 74 112 142 119 150 7 8 60 76 119 150 58 74 117 149 130 165 68 86 623
792 715 910 35 44 132 167 217 274 85 107 158 207 163 224 11 38 -12 90 -47
106 -42 19 -72 13 -108 -21z"/>
<path d="M3621 4928 c-38 -14 -61 -47 -61 -89 0 -32 11 -52 74 -131 114 -143
498 -631 526 -668 14 -19 52 -68 86 -109 59 -74 382 -485 478 -608 27 -35 52
-63 55 -63 3 1 80 96 171 212 91 116 170 216 175 222 6 6 32 40 60 76 41 54
146 188 273 349 15 18 70 88 122 154 52 66 100 122 105 123 6 2 48 -47 95
-108 47 -60 95 -122 106 -137 12 -14 116 -145 230 -291 114 -146 211 -267 214
-270 3 -3 19 -23 36 -45 23 -32 144 -186 288 -367 11 -15 44 -56 71 -92 54
-71 46 -68 175 -68 98 0 100 1 100 15 0 6 -77 109 -171 227 -94 118 -189 239
-212 269 -22 30 -48 64 -58 75 -10 12 -57 71 -104 131 -48 61 -98 125 -113
144 -15 19 -72 91 -127 161 -384 489 -458 581 -482 600 -47 37 -95 11 -182
-100 -37 -47 -126 -159 -198 -250 -72 -91 -210 -266 -307 -390 -97 -124 -182
-232 -189 -240 -7 -8 -25 -32 -41 -52 -16 -21 -32 -38 -36 -38 -5 0 -36 35
-70 78 -33 42 -66 84 -73 92 -7 8 -69 87 -138 175 -69 88 -181 230 -248 315
-135 171 -236 299 -366 465 -122 156 -138 176 -160 202 -25 29 -72 43 -104 31z"/>
<path d="M2855 3841 c-26 -33 -47 -63 -48 -68 -1 -12 104 -68 201 -107 229
-91 508 -106 749 -41 126 33 273 96 311 133 7 6 18 12 23 12 10 0 -76 115 -93
126 -4 3 -49 -15 -101 -40 -148 -71 -254 -96 -429 -101 -183 -4 -319 25 -478
103 -41 20 -78 38 -81 40 -4 2 -28 -24 -54 -57z"/>
</g>
</svg>
