<?xml version="1.0" standalone="no"?>
<!DOCTYPE svg PUBLIC "-//W3C//DTD SVG 20010904//EN"
 "http://www.w3.org/TR/2001/REC-SVG-20010904/DTD/svg10.dtd">
<svg version="1.0" xmlns="http://www.w3.org/2000/svg"
 width="700.000000pt" height="700.000000pt" viewBox="0 0 700.000000 700.000000"
 preserveAspectRatio="xMidYMid meet">
<metadata>
Created by potrace 1.14, written by Peter Selinger 2001-2017
</metadata>
<g transform="translate(0.000000,700.000000) scale(0.100000,-0.100000)"
fill="#000000" stroke="none">
<path d="M3479 6996 c-2 -2 -40 -7 -84 -10 -99 -9 -242 -31 -390 -60 -108 -22
-411 -115 -489 -151 -17 -7 -60 -26 -96 -40 -36 -15 -114 -52 -175 -83 -521
-268 -938 -651 -1265 -1162 -50 -78 -195 -356 -229 -440 -87 -209 -167 -477
-197 -659 -3 -18 -8 -43 -10 -55 -3 -11 -7 -43 -10 -70 -3 -28 -7 -53 -9 -56
-2 -4 -8 -51 -12 -106 -15 -182 -8 -575 11 -694 2 -14 7 -47 11 -75 22 -172
109 -507 166 -640 4 -11 24 -60 44 -109 37 -92 121 -265 134 -279 5 -5 23 11
42 35 18 24 85 108 148 187 113 142 114 145 102 175 -123 302 -186 544 -218
841 -12 109 -8 479 6 589 17 127 16 127 66 351 7 33 32 114 54 180 23 66 43
125 44 130 2 6 11 27 20 49 9 21 17 40 17 41 0 2 16 38 37 82 87 186 211 387
347 558 78 98 319 346 384 395 19 14 57 43 85 65 311 244 685 419 1090 510 59
14 127 27 150 30 23 3 58 7 77 10 122 16 195 20 355 20 212 0 307 -7 470 -35
753 -131 1403 -556 1833 -1200 140 -210 285 -525 351 -760 26 -96 68 -290 76
-355 3 -27 7 -66 10 -85 29 -233 21 -538 -21 -770 -2 -14 -7 -41 -10 -60 -17
-112 -85 -341 -154 -518 l-32 -84 24 -26 c14 -15 80 -98 147 -184 68 -87 126
-158 130 -158 9 0 107 203 151 315 51 128 126 369 145 463 1 9 10 51 18 92 17
82 24 127 33 198 2 26 7 58 9 72 22 127 22 549 0 704 -3 20 -7 53 -10 74 -4
20 -8 55 -11 77 -11 79 -64 303 -99 421 -188 619 -559 1163 -1075 1574 -289
230 -635 417 -984 531 -82 27 -243 72 -300 83 -108 23 -184 36 -256 46 -47 6
-101 13 -120 16 -39 6 -526 15 -531 10z"/>
<path d="M3637 4820 c-27 -8 -127 -79 -127 -90 0 -3 -10 -16 -23 -30 -12 -14
-72 -88 -132 -165 -98 -126 -327 -417 -358 -455 -7 -8 -194 -246 -416 -529
-222 -283 -410 -521 -417 -530 -11 -13 -114 -144 -209 -266 -13 -16 -72 -91
-130 -165 -59 -74 -118 -148 -130 -165 -13 -16 -81 -102 -150 -190 -70 -88
-141 -178 -158 -201 -18 -23 -60 -77 -94 -120 -34 -43 -91 -115 -125 -160 -83
-106 -905 -1150 -923 -1172 -8 -9 -66 -83 -129 -164 l-116 -146 0 -136 0 -136
208 0 208 0 249 317 c324 412 562 714 578 733 7 8 28 35 47 60 19 25 40 52 47
60 7 8 83 105 169 215 87 110 232 295 323 410 90 116 239 305 330 420 90 116
177 226 193 245 16 19 32 40 36 45 12 16 242 309 487 620 125 160 242 308 259
330 17 22 33 42 36 45 3 3 21 25 40 50 31 40 436 552 467 590 129 158 239 304
254 337 45 98 18 206 -73 288 -67 60 -142 79 -221 55z"/>
<path d="M4177 4148 c-116 -25 -190 -117 -191 -238 -1 -87 11 -107 191 -336
224 -284 769 -976 920 -1169 74 -93 140 -177 147 -186 7 -8 46 -58 87 -110 41
-52 79 -101 86 -109 7 -8 56 -71 110 -140 53 -69 100 -127 103 -130 3 -3 27
-34 55 -70 27 -36 55 -72 62 -80 14 -17 98 -124 323 -410 84 -107 201 -256
260 -330 58 -74 182 -232 275 -350 93 -118 181 -231 197 -250 16 -19 32 -39
36 -45 49 -65 155 -195 158 -195 2 0 4 177 4 394 l0 393 -212 269 c-116 148
-225 287 -242 309 -17 22 -33 42 -36 45 -3 3 -21 25 -40 50 -19 25 -41 52 -47
60 -7 8 -117 148 -244 310 -127 162 -242 309 -255 325 -13 17 -72 91 -131 166
-59 75 -129 163 -154 195 -25 32 -83 106 -128 164 -46 58 -95 120 -110 139
-14 18 -46 59 -71 91 -25 31 -57 72 -72 91 -15 19 -82 104 -150 190 -68 86
-134 171 -148 190 -14 18 -37 47 -51 63 -14 17 -83 105 -154 196 -71 91 -134
170 -140 176 -5 6 -52 66 -103 132 -98 127 -137 167 -188 188 -41 17 -101 22
-147 12z"/>
<path d="M5105 1451 c-27 -25 -223 -124 -390 -197 -94 -41 -368 -123 -465
-139 -19 -3 -53 -10 -75 -15 -22 -5 -62 -11 -90 -14 -27 -4 -59 -8 -70 -10
-74 -14 -409 -22 -530 -11 -77 6 -158 15 -175 20 -8 2 -37 6 -65 10 -101 13
-287 59 -440 110 -139 46 -391 160 -487 222 -22 13 -43 23 -48 21 -4 -2 -34
-37 -66 -78 -33 -41 -64 -82 -71 -90 -61 -74 -133 -166 -133 -171 -1 -17 299
-176 461 -245 197 -83 491 -170 679 -199 19 -3 42 -8 50 -10 8 -2 46 -7 85
-10 38 -4 72 -8 75 -10 11 -6 242 -17 355 -17 145 1 270 9 410 27 61 8 80 11
125 20 14 2 41 7 60 10 147 24 457 119 635 195 172 73 470 233 463 250 -9 21
-265 339 -273 340 -6 0 -15 -4 -20 -9z"/>
</g>
</svg>
